<svg xmlns="http://www.w3.org/2000/svg" width="40" height="40" viewBox="0 0 40 40">
    <g data-name="Group 6093">
        <path data-name="Rectangle 2671" style="fill:#034c81" d="M0 0h40v40H0z"/>
        <path d="M40 3.849a16.617 16.617 0 0 1-4.1 4.238q.024.47.024 1.062a23.572 23.572 0 0 1-3.891 12.9 24.931 24.931 0 0 1-4.7 5.344 20.941 20.941 0 0 1-6.553 3.712 23.936 23.936 0 0 1-8.2 1.384A22.841 22.841 0 0 1 0 28.806a17.743 17.743 0 0 0 1.958.113A16.089 16.089 0 0 0 12.151 25.4a7.962 7.962 0 0 1-4.765-1.638 8.066 8.066 0 0 1-2.9-4.061 8.2 8.2 0 0 0 3.705-.138 8 8 0 0 1-4.708-2.823 7.94 7.94 0 0 1-1.871-5.215v-.1A8.1 8.1 0 0 0 5.33 12.45a8.152 8.152 0 0 1-2.667-2.925 8.008 8.008 0 0 1-.986-3.9A8.063 8.063 0 0 1 2.788 1.5a23.365 23.365 0 0 0 7.482 6.057 22.8 22.8 0 0 0 9.43 2.519 8.025 8.025 0 0 1-.216-1.868 7.905 7.905 0 0 1 2.4-5.8 8.21 8.21 0 0 1 11.796.182A16.344 16.344 0 0 0 38.89.6a7.934 7.934 0 0 1-3.6 4.541A16.4 16.4 0 0 0 40 3.849z" transform="translate(0 7.506)" style="fill:#fff"/>
    </g>
</svg>
