<svg data-name="Group 6092" xmlns="http://www.w3.org/2000/svg" width="14.51" height="14.599" viewBox="0 0 14.51 14.599">
    <path data-name="Rectangle 2668" style="fill:#034c81" d="M0 0h14.51v14.599H0z"/>
    <path d="M3.143 13.19v-8.9H.175v8.9zM1.659 3.075A1.543 1.543 0 1 0 1.679 0a1.542 1.542 0 1 0-.039 3.075h.019zM4.785 13.19h2.968V8.22a2.019 2.019 0 0 1 .1-.722 1.624 1.624 0 0 1 1.52-1.082c1.074 0 1.5.816 1.5 2.012v4.762h2.968v-5.1c0-2.734-1.464-4.005-3.417-4.005a2.957 2.957 0 0 0-2.694 1.5h.02V4.29H4.786c.039.835 0 8.9 0 8.9z" transform="translate(.441 1.242)" style="fill:#fff"/>
</svg>
