<svg xmlns="http://www.w3.org/2000/svg" width="40" height="40" viewBox="0 0 40 40">
    <g data-name="Group 6092">
        <path data-name="Rectangle 2668" style="fill:#034c81" d="M0 0h40v40H0z"/>
        <path d="M9.08 38.236v-25.8H.505v25.8zM4.794 8.913c2.99 0 4.852-1.981 4.852-4.456A4.456 4.456 0 0 0 4.85 0C1.918 0 0 1.926 0 4.457a4.439 4.439 0 0 0 4.738 4.456h.056zm9.032 29.323H22.4V23.829a5.87 5.87 0 0 1 .282-2.092 4.694 4.694 0 0 1 4.4-3.136c3.1 0 4.344 2.365 4.344 5.834v13.8H40V23.444c0-7.925-4.231-11.611-9.872-11.611a8.539 8.539 0 0 0-7.785 4.346h.057v-3.742h-8.573c.112 2.421 0 25.8 0 25.8z" transform="translate(0 1.764)" style="fill:#fff"/>
    </g>
</svg>
