<svg xmlns="http://www.w3.org/2000/svg" width="40" height="40" viewBox="0 0 40 40">
    <g data-name="Group 6090">
        <path data-name="Rectangle 2666" style="fill:#034c81" d="M0 0h40v40H0z"/>
        <path d="M26.666 20A6.669 6.669 0 0 0 20 13.333 6.669 6.669 0 0 0 13.333 20 6.669 6.669 0 0 0 20 26.666 6.669 6.669 0 0 0 26.666 20zm3.593 0A10.224 10.224 0 0 1 20 30.26 10.224 10.224 0 0 1 9.74 20 10.224 10.224 0 0 1 20 9.74 10.224 10.224 0 0 1 30.259 20zm2.812-10.677a2.4 2.4 0 1 1-4.088-1.692 2.4 2.4 0 0 1 4.088 1.692zM20 3.593l-1.993-.013q-1.81-.013-2.748 0t-2.513.078a20.536 20.536 0 0 0-2.682.26A10.349 10.349 0 0 0 8.2 4.4a6.811 6.811 0 0 0-3.8 3.8 10.451 10.451 0 0 0-.482 1.862 20.537 20.537 0 0 0-.26 2.682q-.064 1.576-.078 2.513t0 2.748q.013 1.81.013 1.992t-.013 1.992q-.013 1.81 0 2.748t.078 2.513a20.537 20.537 0 0 0 .26 2.682A10.388 10.388 0 0 0 4.4 31.8a6.811 6.811 0 0 0 3.8 3.8 10.45 10.45 0 0 0 1.862.482 20.537 20.537 0 0 0 2.682.26q1.576.064 2.513.078t2.748 0L20 36.405l1.992.013q1.81.013 2.748 0t2.513-.078a20.534 20.534 0 0 0 2.682-.26 10.451 10.451 0 0 0 1.865-.48 6.811 6.811 0 0 0 3.8-3.8 10.451 10.451 0 0 0 .482-1.862 20.537 20.537 0 0 0 .26-2.682q.064-1.576.078-2.513t0-2.748q-.013-1.81-.013-1.992t.013-1.992q.013-1.81 0-2.748t-.078-2.513a20.535 20.535 0 0 0-.26-2.682A10.25 10.25 0 0 0 35.6 8.2a6.811 6.811 0 0 0-3.8-3.8 10.45 10.45 0 0 0-1.862-.482 20.536 20.536 0 0 0-2.682-.26q-1.576-.064-2.513-.078t-2.748 0L20 3.594zM40 20q0 5.963-.13 8.255-.26 5.417-3.229 8.385t-8.386 3.23Q25.963 40 20 40t-8.255-.13q-5.417-.26-8.385-3.229T.13 28.255Q0 25.963 0 20t.13-8.255q.26-5.417 3.229-8.386T11.744.13Q14.036 0 20 0t8.255.13q5.417.26 8.385 3.229t3.229 8.385Q40 14.037 40 20z" style="fill:#fff"/>
    </g>
</svg>
