<svg data-name="Group 6090" xmlns="http://www.w3.org/2000/svg" width="14.625" height="14.599" viewBox="0 0 14.625 14.599">
    <path data-name="Rectangle 2666" transform="translate(.031)" style="fill:#034c81" d="M0 0h14.594v14.599H0z"/>
    <path d="M9.285 6.966a2.322 2.322 0 0 0-2.321-2.322 2.322 2.322 0 0 0-2.322 2.322 2.322 2.322 0 0 0 2.322 2.322 2.322 2.322 0 0 0 2.321-2.322zm1.251 0a3.56 3.56 0 0 1-3.572 3.574 3.56 3.56 0 0 1-3.573-3.574 3.446 3.446 0 0 1 1.043-2.53 3.444 3.444 0 0 1 2.53-1.043 3.444 3.444 0 0 1 2.53 1.043 3.446 3.446 0 0 1 1.042 2.53zm.979-3.719a.834.834 0 1 1-1.423-.589.834.834 0 0 1 1.423.589zm-4.552-2H5.312q-.327 0-.875.027a7.148 7.148 0 0 0-.934.091 3.6 3.6 0 0 0-.648.168 2.372 2.372 0 0 0-1.323 1.324 3.641 3.641 0 0 0-.168.649 7.156 7.156 0 0 0-.091.934q-.022.549-.027.875t0 .957V8.617q0 .327.027.875a7.156 7.156 0 0 0 .091.934 3.619 3.619 0 0 0 .168.648A2.372 2.372 0 0 0 2.856 12.4a3.638 3.638 0 0 0 .648.168 7.148 7.148 0 0 0 .934.091q.549.022.875.027t.957 0H8.615q.327 0 .875-.027a7.147 7.147 0 0 0 .934-.091 3.638 3.638 0 0 0 .648-.168 2.372 2.372 0 0 0 1.328-1.325 3.641 3.641 0 0 0 .168-.649 7.156 7.156 0 0 0 .091-.934q.022-.549.027-.875t0-.957V5.315q0-.327-.027-.875a7.155 7.155 0 0 0-.091-.934 3.571 3.571 0 0 0-.169-.648 2.372 2.372 0 0 0-1.324-1.324 3.638 3.638 0 0 0-.648-.168 7.148 7.148 0 0 0-.934-.091q-.549-.022-.875-.027t-.957 0h-.694zm6.964 5.715q0 2.077-.045 2.875a4.255 4.255 0 0 1-1.124 2.921 4.252 4.252 0 0 1-2.92 1.125q-.8.045-2.874.045t-2.874-.045a4.252 4.252 0 0 1-2.92-1.125A4.255 4.255 0 0 1 .045 9.842Q0 9.043 0 6.966t.045-2.875A4.255 4.255 0 0 1 1.17 1.17 4.252 4.252 0 0 1 4.089.045Q4.887 0 6.964 0t2.874.045a4.252 4.252 0 0 1 2.92 1.125 4.255 4.255 0 0 1 1.124 2.921q.045.798.045 2.875z" transform="translate(0 .499)" style="fill:#fff"/>
</svg>
