<svg data-name="Group 6093" xmlns="http://www.w3.org/2000/svg" width="17.175" height="14.599" viewBox="0 0 17.175 14.599">
    <path data-name="Rectangle 2671" transform="translate(.298)" style="fill:#034c81" d="M0 0h16.878v14.599H0z"/>
    <path d="M16.211 1.65a6.963 6.963 0 0 1-1.661 1.818q.01.2.01.455a10.615 10.615 0 0 1-.389 2.826 10.36 10.36 0 0 1-1.188 2.708 10.53 10.53 0 0 1-1.9 2.292 8.379 8.379 0 0 1-2.66 1.591 9.222 9.222 0 0 1-3.325.594A8.892 8.892 0 0 1 0 12.353a6.8 6.8 0 0 0 .793.049 6.3 6.3 0 0 0 4.131-1.508 3.115 3.115 0 0 1-1.931-.7A3.46 3.46 0 0 1 1.819 8.45a3.147 3.147 0 0 0 1.5-.059 3.215 3.215 0 0 1-1.907-1.213 3.527 3.527 0 0 1-.759-2.236V4.9a3.146 3.146 0 0 0 1.507.44 3.432 3.432 0 0 1-1.081-1.255 3.593 3.593 0 0 1-.4-1.673A3.613 3.613 0 0 1 1.13.643a9.6 9.6 0 0 0 3.032 2.6A8.85 8.85 0 0 0 7.984 4.32a3.632 3.632 0 0 1-.087-.8 3.491 3.491 0 0 1 .974-2.488 3.2 3.2 0 0 1 4.779.079 6.408 6.408 0 0 0 2.112-.855A3.376 3.376 0 0 1 14.3 2.2a6.364 6.364 0 0 0 1.911-.553z" transform="translate(0 .498)" style="fill:#fff"/>
</svg>
